# xmcd CD database file
#
# Track frame offsets:
#	150
#	9162
#	16967
#	27400
#	33562
#	46165
#	54475
#	69945
#	82437
#	91600
#	103135
#	110875
#	121942
#	133462
#	145275
#	154375
#	168445
#	175962
#
# Disc length: 2497 seconds
#
# Revision: 0
# Processed by: cddbd v1.4PL0 Copyright (c) Steve Scherf et al.
# Submitted via: CDex 1.40Beta8
#
DISCID=f909bf12
DTITLE=Jim Reeves - Special Love Songs
DYEAR=1900
DGENRE=Country
TTITLE0=I'd Like To Be
TTITLE1=I Know One
TTITLE2=Anna Marie
TTITLE3=Have I Told You Lately That I Love You
TTITLE4=Your Old Love Letters
TTITLE5=Till The End Of The World
TTITLE6=Making Believe
TTITLE7=Four Walls
TTITLE8=According To My Heart
TTITLE9=Just Call Me Lonesome
TTITLE10=Blue Boy
TTITLE11=I Missed Me
TTITLE12=Am I Losing You
TTITLE13=I Love You More
TTITLE14=If You Were Only Mine
TTITLE15=How's The World Treating You
TTITLE16=I'm Begining To Forget You
TTITLE17=If Heartaches Are The Fashion
EXTD=ID3G: 2
EXTT0=
EXTT1=
EXTT2=
EXTT3=
EXTT4=
EXTT5=
EXTT6=
EXTT7=
EXTT8=
EXTT9=
EXTT10=
EXTT11=
EXTT12=
EXTT13=
EXTT14=
EXTT15=
EXTT16=
EXTT17=
PLAYORDER=
